<!--version="1.0" standalone="no"--><!DOCTYPE html PUBLIC "-//W3C//DTD SVG 1.0//EN" "http://www.w3.org/TR/2001/REC-SVG-20010904/DTD/svg10.dtd"><svg xmlns="http://www.w3.org/2000/svg" xmlns:xlink="http://www.w3.org/1999/xlink" id="body_-1765446066_12280" width="5875.89697265625" height="2826.958740234375" preserveAspectRatio="xMidYMid meet" zoomAndPan="magnify" version="1.0" contentScriptType="text/ecmascript" contentStyleType="text/css">

<g transform="matrix(95.500800244792558 0 0 -95.500800244792558 15.277444271496279 2819.6086073393853)">
    <g>
                <path d="M43.039272486826945 0.017943795082402403L43.18111343459281 3.1715834700306655L43.181113434592845 3.1715834700306686L39.13520364677759 3.353555964821425L39.135203646777569 3.3535559648214175L38.998057889799952 0.30430734958952721L38.998057889799981 0.30430734958952854L43.039272486826981 0.017943795082399405" stroke="#DEDEDE" stroke-width="0" stroke-opacity="1" fill="#DEDEDE" fill-rule="evenodd" fill-opacity="1"/>
                <path d="M31.655000000011878 28.599315664054075L31.655000000012009 29.24748596070069L31.655000000011992 29.247485960700686L14.555000000011763 29.247485960701734L14.555000000011741 29.247485960701738L14.555000000011605 28.59931566405518L14.555000000011599 28.599315664055169L31.655000000011832 28.599315664054064" stroke="#EDEDED" stroke-width="0" stroke-opacity="1" fill="#EDEDED" fill-rule="evenodd" fill-opacity="1"/>
                <path d="M31.655000000011423 22.275156516228279L31.655000000011853 28.599315664054082L31.655000000011878 28.599315664054075L14.555000000011646 28.59931566405518L14.555000000011599 28.599315664055169L14.555000000011402 22.275156516229327L14.5550000000114 22.27515651622933L31.655000000011402 22.275156516228265" stroke="#D3D3D3" stroke-width="0" stroke-opacity="1" fill="#D3D3D3" fill-rule="evenodd" fill-opacity="1"/>
                <path d="M14.555000000011599 28.599315664055169L14.555000000011736 29.247485960701727L14.555000000011741 29.247485960701738L2.4653903360254183 29.247485960702445L2.465390336025405 29.247485960702448L2.4653903360244671 28.599315664055947L2.4653903360244671 28.599315664055936L14.555000000011592 28.599315664055172" stroke="#EDEDED" stroke-width="0" stroke-opacity="1" fill="#EDEDED" fill-rule="evenodd" fill-opacity="1"/>
                <path d="M14.5550000000114 22.2724859607018L14.555000000011603 28.599315664055176L14.555000000011599 28.599315664055169L2.4653903360244733 28.599315664055933L2.4653903360244671 28.599315664055936L2.4653903360249561 22.272485960702436L2.4653903360249503 22.27248596070244L14.555000000011383 22.2724859607018M2.8554246212136976 18.797501024264108L2.8554236166211187 18.797515453581262L2.8554236166211213 18.797515453581269L2.8550416807776009 21.45791579250298L2.8550416807776005 21.457915792502973L2.8554246212136998 18.797501024264108L2.8554246212136976 18.797501024264108" stroke="#D3D3D3" stroke-width="0" stroke-opacity="1" fill="#D3D3D3" fill-rule="evenodd" fill-opacity="1"/>
                <path d="M2.8550000000111568 18.797485960702431L2.8550000000128399 21.747485960702587L2.8550000000128479 21.747485960702576L2.4650000000114245 21.747485960702551L2.4650000000114263 21.747485960702562L2.464728717934018 22.047485960700943L2.4647287179340198 22.047485960700939L1.1288747714388592E-11 22.047485960702581L1.1280587575157597E-11 22.047485960702588L1.1105005803813128E-11 18.797485960702609L1.1110057318575173E-11 18.797485960702602L2.8550000000111653 18.797485960702424M2.8554246212136976 18.797501024264108L2.8554236166211187 18.797515453581262L2.8554236166211213 18.797515453581269L2.8550416807776009 21.45791579250298L2.8550416807776005 21.457915792502973L2.8554246212136998 18.797501024264108L2.8554246212136976 18.797501024264108" stroke="#ACACAC" stroke-width="0" stroke-opacity="1" fill="#ACACAC" fill-rule="evenodd" fill-opacity="1"/>
                <path d="M14.555000000011116 16.103236131866012L14.555000000011425 22.272485960701804L14.5550000000114 22.2724859607018L2.4653903360262195 22.272485960702472L2.4653903360262008 22.272485960702468L2.4650000000114143 21.747485960702548L2.4650000000114263 21.747485960702562L2.8550000000128497 21.747485960702587L2.8550000000128479 21.747485960702576L2.8554530437384833 16.103236131865906L2.8554530437384757 16.103236131865913L14.555000000011077 16.103236131866016M2.8554246212136976 18.797501024264108L2.8554236166211187 18.797515453581262L2.8554236166211213 18.797515453581269L2.8550416807776009 21.45791579250298L2.8550416807776005 21.457915792502973L2.8554246212136998 18.797501024264108L2.8554246212136976 18.797501024264108" stroke="#AFAFAF" stroke-width="0" stroke-opacity="1" fill="#AFAFAF" fill-rule="evenodd" fill-opacity="1"/>
                <path d="M14.555000000011116 16.103236131866012L2.8554530437385157 16.103236131865909L2.8554530437384757 16.103236131865913L2.8554599614234002 15.447485960703093L2.8554599614234037 15.447485960703091L14.554853197038728 15.447485960701746L14.554853197038735 15.447485960701741L14.555000000011088 16.103236131866009" stroke="#434343" stroke-width="0" stroke-opacity="1" fill="#434343" fill-rule="evenodd" fill-opacity="1"/>
                <path d="M32.755000000011051 13.847485960700553L32.755000000010959 14.502051345745258L32.755000000010938 14.502051345745258L14.555469935718929 14.502051345746525L14.555469935718943 14.502051345746523L14.555476840905486 13.847485960701771L14.555476840905467 13.847485960701775L32.755000000011023 13.847485960700553" stroke="#434343" stroke-width="0" stroke-opacity="1" fill="#434343" fill-rule="evenodd" fill-opacity="1"/>
                <path d="M32.755000000010938 14.502051345745258L32.755000000011265 20.347485960700496L32.755000000011279 20.347485960700496L31.655000000011256 20.34748596070062L31.655000000011253 20.347485960700624L31.655000000011412 22.275156516228275L31.655000000011423 22.275156516228279L14.555000000011422 22.275156516229345L14.5550000000114 22.27515651622933L14.555469935718927 14.502051345746516L14.555469935718943 14.502051345746523L32.755000000010952 14.502051345745256" stroke="#B3B3B3" stroke-width="0" stroke-opacity="1" fill="#B3B3B3" fill-rule="evenodd" fill-opacity="1"/>
                <path d="M35.305000000011063 18.097485960700425L35.304423072907788 20.347485960700393L35.304423072907781 20.347485960700396L32.75500000001125 20.347485960700499L32.755000000011279 20.347485960700496L32.755000000011272 18.097485960700681L32.755000000011222 18.097485960700681L35.305000000011034 18.097485960700425" stroke="#9B9B9B" stroke-width="0" stroke-opacity="1" fill="#9B9B9B" fill-rule="evenodd" fill-opacity="1"/>
                <path d="M31.655000000011253 20.347485960700624L36.205000000011793 24.897485960700394L36.205000000011779 24.897485960700379L31.65500000001196 29.44748596070086L31.655000000011992 29.447485960700874L31.65500000001127 20.347485960700624" stroke="#9F9F9F" stroke-width="0" stroke-opacity="1" fill="#9F9F9F" fill-rule="evenodd" fill-opacity="1"/>
                <path d="M42.555000000011404 20.347485960699942L38.005000000011471 24.897485960700415L38.005000000011449 24.897485960700422L36.205000000011786 24.897485960700386L36.205000000011779 24.897485960700379L31.655000000011238 20.34748596070061L31.655000000011253 20.347485960700624L42.55500000001139 20.347485960699956" stroke="#9B9B9B" stroke-width="0" stroke-opacity="1" fill="#9B9B9B" fill-rule="evenodd" fill-opacity="1"/>
                <path d="M42.555000000011404 20.347485960699942L42.555000000008704 24.371125704518288L42.555000000008675 24.371125704518306L40.073870775678252 26.966356736366645L40.073870775678273 26.966356736366635L38.005000000011577 24.897485960700429L38.005000000011563 24.897485960700436L42.555000000011383 20.347485960699956" stroke="#DEDEDE" stroke-width="0" stroke-opacity="1" fill="#DEDEDE" fill-rule="evenodd" fill-opacity="1"/>
                <path d="M44.181363744274705 24.297976899056636L46.932398699407727 26.812196985383213L46.932398699407742 26.81219698538321L40.073870775678273 26.966356736366635L40.073870775678273 26.966356736366635L42.555000000008697 24.371125704518295L42.555000000008675 24.371125704518306L44.181363744274691 24.297976899056643" stroke="#9A9A9A" stroke-width="0" stroke-opacity="1" fill="#9A9A9A" fill-rule="evenodd" fill-opacity="1"/>
                <path d="M52.433012401478123 21.058621865706513L60.90693485132735 29.147485960709375L60.90693485132735 29.147485960709375L55.705268800011496 29.147485960709648L55.70526880001151 29.147485960709645L55.705268800012071 29.447485960699353L55.705268800012078 29.447485960699353L31.655000000012098 29.447485960700877L31.655000000012105 29.447485960700874L36.205000000011815 24.897485960700386L36.205000000011779 24.897485960700379L38.005000000011556 24.897485960700422L38.005000000011563 24.897485960700436L40.073870775678259 26.966356736366642L40.073870775678273 26.966356736366635L46.932398699407742 26.81219698538321L46.932398699407742 26.81219698538321L52.433012401478138 21.058621865706506" stroke="#E4E4E4" stroke-width="0" stroke-opacity="1" fill="#E4E4E4" fill-rule="evenodd" fill-opacity="1"/>
                <path d="M59.963693514819255 2.4167549824012653L61.207257626430071 29.147485960709261L61.207257626430106 29.147485960709261L60.906934851327385 29.147485960709371L60.90693485132735 29.147485960709375L52.433012401478123 21.058621865706513L52.433012401478123 21.058621865706513L51.980408954963686 11.165520825513322L51.980408954963679 11.165520825513312L59.963693514819248 2.4167549824012617" stroke="#DCDCDC" stroke-width="0" stroke-opacity="1" fill="#DCDCDC" fill-rule="evenodd" fill-opacity="1"/>
                <path d="M46.258435436802273 5.9361068095448815L51.980408954963664 11.165520825513315L51.980408954963679 11.165520825513312L52.433012401478109 21.058621865706613L52.433012401478123 21.058621865706627L46.932398699407734 26.812196985383217L46.932398699407742 26.81219698538321L44.181363744274719 24.297976899056632L44.181363744274705 24.297976899056636L43.49166552327813 8.963479308201002L43.491665523278158 8.963479308201002L46.258435436802323 5.9361068095448815" stroke="#A1A1A1" stroke-width="0" stroke-opacity="1" fill="#A1A1A1" fill-rule="evenodd" fill-opacity="1"/>
                <path d="M38.186163079265242 3.396240871006782L41.213535577921668 6.1630107845306838L41.213535577921647 6.1630107845306838L38.446765664397603 9.1903832831866978L38.446765664397645 9.1903832831867049L38.186163079265263 3.3962408710067882" stroke="#A1A1A1" stroke-width="0" stroke-opacity="1" fill="#A1A1A1" fill-rule="evenodd" fill-opacity="1"/>
                <path d="M59.963693514819255 2.4167549824012653L51.980408954963686 11.165520825513315L51.980408954963679 11.165520825513312L46.258435436802287 5.936106809544877L46.258435436802273 5.9361068095448815L41.213535577921618 6.1630107845307451L41.213535577921647 6.1630107845307407L38.186163079265228 3.3962408710067824L38.186163079265242 3.396240871006782L59.963693514819283 2.41675498240126" stroke="#9A9A9A" stroke-width="0" stroke-opacity="1" fill="#9A9A9A" fill-rule="evenodd" fill-opacity="1"/>
                <path d="M46.258435436802273 5.9361068095448815L43.491665523278108 8.963479308201002L43.491665523278158 8.963479308201002L38.446765664397631 9.1903832831867032L38.446765664397645 9.1903832831867049L41.213535577921689 6.1630107845307478L41.213535577921647 6.1630107845307407L46.258435436802301 5.936106809544877" stroke="#E6E6E6" stroke-width="0" stroke-opacity="1" fill="#E6E6E6" fill-rule="evenodd" fill-opacity="1"/>
                <path d="M38.998057889799981 0.30430734958952854L39.135203646777597 3.3535559648214188L39.135203646777569 3.3535559648214175L38.885456129010961 3.3647888348702617L38.885456129010976 3.3647888348702679L38.748600120765666 0.32198248153705977L38.748600120765644 0.32198248153705578L38.998057889799952 0.30430734958952937" stroke="#808080" stroke-width="0" stroke-opacity="1" fill="#808080" fill-rule="evenodd" fill-opacity="1"/>
                <path d="M43.288730588889024 0.00027616470244140601L43.430860952359005 3.160350599981955L43.430860952358984 3.1603505999819603L43.181113434592838 3.171583470030666L43.181113434592845 3.1715834700306686L43.039272486718289 0.017943795090109571L43.039272486718318 0.017943795090104686L43.288730588889031 0.00027616470244462912" stroke="#808080" stroke-width="0" stroke-opacity="1" fill="#808080" fill-rule="evenodd" fill-opacity="1"/>
                <path d="M61.207257626418482 29.447485960698941L0 29.44748596070275L0 -0L61.207257626418368 -1.1368683772161603E-13L61.207257626418482 29.447485960698941" stroke="#FF0000" stroke-width="0.0049603862398914468" stroke-linecap="round" stroke-linejoin="round" fill="none"/>
    </g>
</g>
</svg>